<svg width="269" height="282" fill="none" xmlns="http://www.w3.org/2000/svg"><g filter="url(#filter0_d_90_1040)"><path d="M171 141c0 16.569-13.431 30-30 30-16.569 0-30-13.431-30-30 0-16.569 13.431-30 30-30 16.569 0 30 13.431 30 30z" fill="url(#paint0_linear_90_1040)"/><path d="M141 111.75c16.154 0 29.25 13.096 29.25 29.25s-13.096 29.25-29.25 29.25-29.25-13.096-29.25-29.25 13.096-29.25 29.25-29.25z" stroke="#2EECC5" stroke-opacity=".5" stroke-width="1.5"/></g><g filter="url(#filter1_d_90_1040)"><rect x="175.25" y="175.25" width="68.5" height="68.5" rx="34.25" transform="rotate(-180 175.25 175.25)" stroke="#153630" stroke-width="1.5" shape-rendering="crispEdges"/></g><path d="M149.061 142.061a1.502 1.502 0 000-2.122l-9.546-9.546a1.502 1.502 0 00-2.122 0 1.502 1.502 0 000 2.122l8.486 8.485-8.486 8.485a1.502 1.502 0 000 2.122 1.502 1.502 0 002.122 0l9.546-9.546zM147 142.5h1v-3h-1v3z" fill="#2C8E7A"/><defs><filter id="filter0_d_90_1040" x="5" y="5" width="272" height="272" filterUnits="userSpaceOnUse" color-interpolation-filters="sRGB"><feFlood flood-opacity="0" result="BackgroundImageFix"/><feColorMatrix in="SourceAlpha" values="0 0 0 0 0 0 0 0 0 0 0 0 0 0 0 0 0 0 127 0" result="hardAlpha"/><feOffset/><feGaussianBlur stdDeviation="53"/><feComposite in2="hardAlpha" operator="out"/><feColorMatrix values="0 0 0 0 0.180392 0 0 0 0 0.92549 0 0 0 0 0.772549 0 0 0 0.1 0"/><feBlend in2="BackgroundImageFix" result="effect1_dropShadow_90_1040"/><feBlend in="SourceGraphic" in2="effect1_dropShadow_90_1040" result="shape"/></filter><filter id="filter1_d_90_1040" x="0" y="0" width="282" height="282" filterUnits="userSpaceOnUse" color-interpolation-filters="sRGB"><feFlood flood-opacity="0" result="BackgroundImageFix"/><feColorMatrix in="SourceAlpha" values="0 0 0 0 0 0 0 0 0 0 0 0 0 0 0 0 0 0 127 0" result="hardAlpha"/><feOffset/><feGaussianBlur stdDeviation="53"/><feComposite in2="hardAlpha" operator="out"/><feColorMatrix values="0 0 0 0 0.180392 0 0 0 0 0.92549 0 0 0 0 0.772549 0 0 0 0.1 0"/><feBlend in2="BackgroundImageFix" result="effect1_dropShadow_90_1040"/><feBlend in="SourceGraphic" in2="effect1_dropShadow_90_1040" result="shape"/></filter><linearGradient id="paint0_linear_90_1040" x1="154" y1="163" x2="141" y2="111" gradientUnits="userSpaceOnUse"><stop stop-color="#19201F"/><stop offset="1" stop-color="#323939"/></linearGradient></defs></svg>